<svg width="2306" height="1184" viewBox="0 0 2306 1184" fill="none" xmlns="http://www.w3.org/2000/svg">
<path fill-rule="evenodd" clip-rule="evenodd" d="M1152.24 2.78045C1144.2 -2.47532 1125.29 -1.70011 1132.38 17.7157C1162.86 46.5355 1173.04 75.4641 1136.16 98.3645C1098.81 135.951 1109.46 177.192 1158.38 206.892L1159.05 206.982C1170.59 208.56 1177.29 209.476 1174.46 192.455C1132.61 156.408 1126.71 137.808 1166.89 109.317C1199.04 76.4598 1185.86 36.6655 1152.24 2.78045ZM1225.99 65.0098C1221.74 52.0659 1225.99 44.5985 1241.12 46.5898C1265.23 63.0183 1288.4 99.8579 1254.89 133.711C1223.16 152.554 1230.26 165.418 1260.09 188.472C1268.54 201.416 1263.89 211.87 1244.9 206.892C1184.8 165.537 1204.3 137.058 1244.9 105.334C1249.91 90.9419 1241.76 82.0974 1227.62 66.7721L1227.61 66.7637C1227.08 66.1884 1226.54 65.604 1225.99 65.0098ZM1499.26 454.315C1347.02 202.412 966.907 166.07 804.744 452.324C804.211 451.925 803.695 451.534 803.19 451.151L803.167 451.133L803.163 451.13C797.275 446.664 792.923 443.363 782.052 443.363C773.542 443.363 768.252 444.784 756.048 454.315C747.753 465.162 745.405 472.05 748.01 486.675C752.573 504.585 756.797 512.096 768.813 518.536C785.157 531.871 803.344 535.184 819.4 535.463C836.052 535.104 845.144 534.435 857.695 526.004L885.589 499.121C886.182 497.815 887.094 496.637 888.008 495.458C889.949 492.95 891.896 490.436 890.791 486.675L916.794 518.536C943.319 542.601 958.98 544.085 987.237 526.004L1020.8 486.675L1058.63 526.004C1088.66 546.655 1103.36 543.431 1126.71 518.536L1156.49 486.675L1177.29 526.004C1207.25 547.972 1225.33 547.149 1259.08 526.004L1275.16 499.618L1283.67 489.164L1295.02 508.082L1313.45 526.004C1341.86 542.512 1351.29 542.669 1380.59 526.004L1411.79 491.155C1411.79 491.155 1439.66 530.252 1463.8 535.463C1487.94 540.673 1583.06 519.426 1551.74 460.29L1537.08 446.848H1516.28L1499.26 454.315ZM1463.8 574.791L1407.54 689.293H893.627L835.002 574.791C859.032 571.501 871.967 566.425 893.627 549.9C946.142 586.177 973.611 581.231 1020.8 549.9C1081.37 588.326 1109.48 580.224 1156.49 549.9C1203.32 584.437 1230.42 582.381 1279.89 549.9C1331.76 583.623 1361.98 583.079 1416.52 549.9C1434.28 567.596 1444.79 571.207 1463.8 574.791ZM1041.61 65.0098C1034.52 49.577 1042.55 42.0499 1058.63 49.577C1087.43 79.4336 1099.65 110.227 1067.14 133.711C1044.44 150.105 1044.44 166.07 1077.07 186.481C1083.69 199.425 1078.82 207.461 1061.94 206.892C1021.28 194.446 1015.7 144.403 1044.44 122.26C1067.37 104.601 1066.76 89.6646 1041.61 65.0098ZM1221.26 342.737C1210.6 327.374 1207.24 318.847 1207.42 303.945C1219.82 300.989 1226.61 301.45 1238.63 303.409C1261.65 310.793 1273.26 317.964 1282.82 335.028C1287.18 350.48 1276.38 367.15 1264.71 368.412C1247.14 367.29 1234.3 358.893 1221.26 342.737ZM1050.8 311.505C1060.26 306.526 1066.81 306.004 1080.59 305.033C1084.49 316.649 1083.42 322.457 1080.59 331.916C1073.02 353.821 1064.78 364.137 1042.77 374.729C1020.28 379.637 1015.33 357.803 1019.13 342.868C1021.96 337.89 1035.67 317.479 1050.8 311.505ZM1129.77 338.885C1135.85 320.973 1140.65 313.251 1152.46 305.033C1161.75 314.169 1165.21 320.345 1170.43 331.916C1177.56 356.111 1178.45 370.249 1170.43 388.171C1160.74 400.654 1141.58 400.617 1134.02 391.158C1125.03 375.227 1124.41 359.325 1129.77 338.885Z" fill="black"/>
<path d="M1648 637H2306V689H1648V637Z" fill="black"/>
<path d="M0 637H658V689H0V637Z" fill="black"/>
<path d="M282.621 826.879C277.182 829.798 271.411 835.303 265.308 843.396C259.206 851.356 253.037 861.571 246.801 874.042C251.577 874.971 255.955 876.032 259.935 877.226C264.048 878.42 267.763 879.68 271.079 881.007L282.621 826.879ZM298.143 812.75C300.929 812.75 303.715 813.015 306.501 813.546C309.287 813.944 311.742 814.607 313.864 815.536L282.621 962H253.965L269.288 889.763C264.645 887.64 260.267 886.048 256.154 884.987C252.042 883.793 247.531 882.997 242.622 882.599C235.06 899.05 228.825 915.766 223.916 932.747C219.14 949.728 216.752 963.327 216.752 973.542C216.752 975.93 216.951 977.986 217.349 979.711C217.88 981.568 218.61 983.227 219.538 984.686C209.456 984.686 202.491 982.961 198.643 979.512C194.796 976.063 192.872 970.756 192.872 963.592C192.872 954.703 195.526 942.83 200.832 927.971C206.272 913.112 213.369 897.988 222.125 882.599C215.359 882.997 210.053 884.058 206.205 885.783C202.491 887.508 200.036 889.896 198.842 892.947C199.373 892.947 199.904 893.677 200.434 895.136C201.098 896.463 201.429 897.789 201.429 899.116C201.429 901.371 200.368 903.229 198.245 904.688C196.123 906.147 193.469 906.877 190.285 906.877C186.571 906.877 183.586 905.882 181.33 903.892C179.075 901.769 177.947 898.917 177.947 895.335C177.947 888.436 181.795 882.665 189.489 878.022C197.317 873.246 207.001 870.858 218.543 870.858C219.87 870.858 221.396 870.924 223.12 871.057C224.845 871.057 226.769 871.19 228.891 871.455C240.566 853.014 252.44 838.62 264.512 828.272C276.585 817.924 287.795 812.75 298.143 812.75Z" fill="black"/>
<path d="M342.315 943.891C345.764 943.891 348.816 942.432 351.469 939.513C354.255 936.462 356.51 932.084 358.235 926.379L371.767 862.5H400.423L386.095 930.16C385.83 931.354 385.631 932.482 385.498 933.543C385.365 934.472 385.299 935.467 385.299 936.528C385.299 939.181 385.896 941.105 387.09 942.299C388.417 943.36 390.539 943.891 393.458 943.891C396.907 943.891 400.025 942.365 402.811 939.314C405.597 936.263 407.852 931.951 409.577 926.379H417.935C413.69 938.584 408.184 947.805 401.418 954.04C394.652 960.143 386.825 963.194 377.936 963.194C372.231 963.194 367.654 961.602 364.205 958.418C360.756 955.101 358.766 950.392 358.235 944.289C354.388 950.657 350.01 955.433 345.101 958.617C340.325 961.668 334.886 963.194 328.783 963.194C322.15 963.194 316.909 961.138 313.062 957.025C309.347 952.78 307.49 946.876 307.49 939.314C307.49 937.589 307.623 935.666 307.888 933.543C308.153 931.288 308.551 928.9 309.082 926.379L322.614 862.5H351.27L336.942 930.16C336.677 931.221 336.478 932.216 336.345 933.145C336.345 933.941 336.345 934.803 336.345 935.732C336.345 938.385 336.809 940.442 337.738 941.901C338.799 943.228 340.325 943.891 342.315 943.891Z" fill="black"/>
<path d="M457.911 940.707C457.911 938.319 458.176 935.334 458.707 931.752C459.37 928.17 460.63 922.465 462.488 914.638C464.345 907.076 465.539 901.637 466.07 898.32C466.6 895.003 466.866 892.217 466.866 889.962C466.866 886.645 466.269 884.125 465.075 882.4C463.881 880.675 462.09 879.813 459.702 879.813C456.518 879.813 453.533 881.471 450.747 884.788C448.093 887.972 445.904 892.416 444.18 898.121L430.648 962H401.992L423.086 862.5H451.742L449.553 872.848C452.869 869.133 456.451 866.347 460.299 864.49C464.146 862.633 468.325 861.704 472.836 861.704C479.867 861.704 485.306 863.628 489.154 867.475C493.001 871.322 494.925 876.894 494.925 884.191C494.925 887.242 494.527 890.891 493.731 895.136C493.067 899.249 491.674 905.617 489.552 914.24C487.827 921.006 486.699 925.782 486.169 928.568C485.638 931.354 485.373 933.676 485.373 935.533C485.373 938.319 486.036 940.442 487.363 941.901C488.689 943.228 490.679 943.891 493.333 943.891C496.649 943.891 499.502 942.763 501.89 940.508C504.278 938.253 506.997 933.543 510.049 926.379H518.407C514.161 938.717 508.987 947.937 502.885 954.04C496.915 960.143 489.751 963.194 481.393 963.194C473.963 963.194 468.192 961.204 464.08 957.224C459.967 953.111 457.911 947.606 457.911 940.707Z" fill="black"/>
<path d="M516.99 862.5H523.557L529.527 835.038L558.979 831.058L552.213 862.5H564.153L562.561 870.46H550.621L537.885 930.16C537.62 931.354 537.421 932.482 537.288 933.543C537.156 934.472 537.089 935.467 537.089 936.528C537.089 939.181 537.686 941.105 538.88 942.299C540.207 943.36 542.33 943.891 545.248 943.891C548.963 943.891 552.479 942.299 555.795 939.115C559.112 935.798 561.566 931.553 563.158 926.379H571.516C567.271 938.452 561.566 947.606 554.402 953.841C547.238 960.076 539.013 963.194 529.726 963.194C523.093 963.194 517.853 961.138 514.005 957.025C510.291 952.78 508.433 946.876 508.433 939.314C508.433 937.589 508.566 935.666 508.831 933.543C509.097 931.288 509.495 928.9 510.025 926.379L521.965 870.46H515.398L516.99 862.5Z" fill="black"/>
<path d="M653.584 962H624.928L651.992 835.436L681.444 831.456L671.693 877.425H673.285C680.847 877.425 687.414 873.777 692.986 866.48C698.69 859.183 701.543 851.29 701.543 842.799C701.543 836.298 699.619 831.191 695.772 827.476C691.924 823.761 686.551 821.904 679.653 821.904C663.202 821.904 650.134 826.282 640.45 835.038C630.765 843.661 625.923 855.402 625.923 870.261C625.923 872.782 626.055 874.971 626.321 876.828C626.719 878.685 627.316 880.476 628.112 882.201C628.377 882.732 628.51 883.13 628.51 883.395C628.642 883.528 628.709 883.66 628.709 883.793C621.279 883.793 615.84 882.267 612.391 879.216C609.074 876.032 607.416 871.123 607.416 864.49C607.416 857.857 609.605 851.223 613.983 844.59C618.493 837.957 624.729 831.987 632.689 826.68C639.455 822.302 646.685 818.919 654.38 816.531C662.207 814.01 669.835 812.75 677.265 812.75C691.195 812.75 702.206 815.669 710.299 821.506C718.391 827.343 722.438 835.038 722.438 844.59C722.438 850.958 720.448 857.26 716.468 863.495C712.62 869.73 707.446 874.772 700.946 878.619C705.589 879.946 709.038 882.267 711.294 885.584C713.549 888.768 714.677 893.08 714.677 898.519C714.677 901.57 714.345 905.086 713.682 909.066C713.018 912.913 711.559 918.817 709.304 926.777C707.446 933.543 706.252 938.385 705.722 941.304C705.191 944.223 704.926 946.743 704.926 948.866C704.926 951.917 705.589 954.637 706.916 957.025C708.375 959.413 710.299 961.071 712.687 962C708.839 963.061 705.191 963.857 701.742 964.388C698.425 965.051 695.506 965.383 692.986 965.383C687.812 965.383 683.898 964.255 681.245 962C678.724 959.877 677.464 956.561 677.464 952.05C677.464 949.795 677.795 947.075 678.459 943.891C679.122 940.574 680.449 935.135 682.439 927.573C684.694 919.348 686.153 913.378 686.817 909.663C687.613 905.816 688.011 902.499 688.011 899.713C688.011 895.202 687.016 891.819 685.026 889.564C683.036 887.309 680.051 886.181 676.071 886.181C675.54 886.181 674.943 886.247 674.28 886.38C673.749 886.38 672.157 886.579 669.504 886.977L653.584 962Z" fill="black"/>
<path d="M722.952 931.354C722.952 923.792 724.146 915.766 726.534 907.275C729.055 898.784 732.438 891.222 736.683 884.589C741.592 876.762 747.496 870.858 754.394 866.878C761.293 862.765 768.988 860.709 777.478 860.709C785.969 860.709 792.337 863.362 796.582 868.669C800.828 873.976 802.95 881.936 802.95 892.549C803.216 892.682 803.481 892.814 803.746 892.947C804.144 892.947 804.609 892.947 805.139 892.947C809.252 892.947 814.161 891.819 819.865 889.564C825.57 887.309 830.877 884.456 835.785 881.007L837.576 886.38C833.862 890.36 828.887 893.809 822.651 896.728C816.549 899.647 809.783 901.703 802.353 902.897C800.761 920.807 795.587 935.268 786.831 946.279C778.075 957.29 767.396 962.796 754.792 962.796C744.444 962.796 736.551 960.143 731.111 954.836C725.672 949.529 722.952 941.702 722.952 931.354ZM779.07 872.848C772.702 872.848 766.666 879.282 760.961 892.151C755.389 905.02 752.603 917.225 752.603 928.767C752.603 935.002 753.267 939.248 754.593 941.503C756.053 943.758 758.772 944.886 762.752 944.886C767.661 944.886 772.304 940.906 776.682 932.946C781.193 924.986 784.244 915.169 785.836 903.494C783.979 903.096 782.586 902.234 781.657 900.907C780.861 899.448 780.463 897.524 780.463 895.136C780.463 892.615 780.994 890.426 782.055 888.569C783.117 886.712 784.642 885.319 786.632 884.39C786.367 880.145 785.637 877.16 784.443 875.435C783.382 873.71 781.591 872.848 779.07 872.848Z" fill="black"/>
<path d="M875.675 928.767C875.675 930.359 875.609 931.752 875.476 932.946C875.344 934.14 875.145 935.268 874.879 936.329C877.533 934.737 880.12 933.079 882.64 931.354C885.161 929.629 887.35 927.971 889.207 926.379H897.565C893.453 931.155 888.876 935.599 883.834 939.712C878.926 943.692 873.354 947.539 867.118 951.254C863.536 955.101 858.959 958.086 853.387 960.209C847.815 962.199 841.978 963.194 835.875 963.194C826.987 963.194 819.889 960.806 814.582 956.03C809.408 951.121 806.821 945.019 806.821 937.722C806.821 933.609 807.816 929.895 809.806 926.578C811.796 923.129 814.317 920.674 817.368 919.215C821.879 911.122 826.058 902.499 829.905 893.345C833.885 884.058 837.865 873.047 841.845 860.311L871.297 856.331C871.695 866.281 872.16 875.369 872.69 883.594C873.221 891.819 873.884 900.774 874.68 910.459C875.078 916.031 875.344 919.945 875.476 922.2C875.609 924.455 875.675 926.644 875.675 928.767ZM843.039 881.803C841.315 887.242 839.192 892.947 836.671 898.917C834.283 904.754 831.033 911.587 826.92 919.414C828.38 920.077 829.507 921.006 830.303 922.2C831.099 923.394 831.497 924.787 831.497 926.379C831.497 928.9 830.635 931.155 828.91 933.145C827.186 935.135 825.129 936.13 822.741 936.13C821.415 936.13 820.287 935.931 819.358 935.533C818.43 935.002 817.766 934.339 817.368 933.543C817.368 938.452 818.297 942.034 820.154 944.289C822.144 946.412 825.262 947.473 829.507 947.473C834.947 947.473 839.192 945.881 842.243 942.697C845.295 939.513 846.82 934.936 846.82 928.966C846.82 927.109 846.754 925.251 846.621 923.394C846.489 921.404 846.223 918.154 845.825 913.643C845.162 907.408 844.631 901.902 844.233 897.126C843.835 892.35 843.437 887.242 843.039 881.803Z" fill="black"/>
<path d="M938.328 836.033C938.328 840.411 936.736 844.126 933.552 847.177C930.5 850.228 926.786 851.754 922.408 851.754C918.03 851.754 914.315 850.228 911.264 847.177C908.212 844.126 906.687 840.411 906.687 836.033C906.687 831.655 908.212 827.94 911.264 824.889C914.315 821.705 918.03 820.113 922.408 820.113C926.786 820.113 930.5 821.705 933.552 824.889C936.736 827.94 938.328 831.655 938.328 836.033ZM887.583 939.314C887.583 937.589 887.716 935.666 887.981 933.543C888.246 931.288 888.644 928.9 889.175 926.379L902.707 862.5H931.363L917.035 930.16C916.769 931.354 916.57 932.482 916.438 933.543C916.305 934.472 916.239 935.467 916.239 936.528C916.239 939.181 916.836 941.105 918.03 942.299C919.356 943.36 921.479 943.891 924.398 943.891C928.112 943.891 931.628 942.299 934.945 939.115C938.261 935.798 940.716 931.553 942.308 926.379H950.666C946.42 938.452 940.716 947.606 933.552 953.841C926.388 960.076 918.162 963.194 908.876 963.194C902.242 963.194 897.002 961.138 893.155 957.025C889.44 952.78 887.583 946.876 887.583 939.314Z" fill="black"/>
<path d="M1015.26 879.813C1015.26 890.824 1010.75 900.443 1001.73 908.668C992.708 916.761 981.962 921.139 969.492 921.802C969.359 924.057 969.226 925.782 969.094 926.976C969.094 928.037 969.094 928.966 969.094 929.762C969.094 935.865 970.089 940.176 972.078 942.697C974.201 945.218 977.982 946.478 983.422 946.478C989.657 946.478 995.362 945.085 1000.54 942.299C1005.84 939.38 1011.88 934.074 1018.64 926.379H1025.41C1017.72 938.85 1009.36 948.136 1000.34 954.239C991.315 960.209 981.432 963.194 970.686 963.194C960.47 963.194 952.709 960.541 947.403 955.234C942.229 949.927 939.642 942.034 939.642 931.553C939.642 923.991 940.836 915.965 943.224 907.474C945.612 898.983 948.796 891.421 952.776 884.788C957.684 876.828 963.522 870.858 970.288 866.878C977.186 862.765 984.881 860.709 993.372 860.709C1000.67 860.709 1006.11 862.301 1009.69 865.485C1013.4 868.536 1015.26 873.312 1015.26 879.813ZM994.964 871.256C990.453 871.256 985.876 875.302 981.233 883.395C976.722 891.355 973.339 900.973 971.083 912.25C978.778 911.719 985.478 908.204 991.182 901.703C997.02 895.07 999.939 887.64 999.939 879.415C999.939 876.629 999.541 874.573 998.745 873.246C997.948 871.919 996.688 871.256 994.964 871.256Z" fill="black"/>
<path d="M1046.46 842.998C1046.46 842.335 1046.26 841.738 1045.87 841.207C1045.47 840.676 1044.87 840.146 1044.07 839.615C1041.16 837.89 1038.97 835.967 1037.51 833.844C1036.05 831.721 1035.32 829.466 1035.32 827.078C1035.32 823.231 1036.71 819.98 1039.5 817.327C1042.42 814.541 1045.87 813.148 1049.85 813.148C1053.69 813.148 1056.74 814.342 1059 816.73C1061.39 819.118 1062.58 822.302 1062.58 826.282C1062.58 831.589 1060.39 837.36 1056.01 843.595C1051.64 849.698 1045.8 855.071 1038.5 859.714C1037.84 859.316 1037.37 858.918 1037.11 858.52C1036.84 857.989 1036.71 857.459 1036.71 856.928L1046.46 842.998Z" fill="black"/>
<path d="M1141.72 928.767C1141.72 930.359 1141.66 931.752 1141.52 932.946C1141.39 934.14 1141.19 935.268 1140.93 936.329C1143.58 934.737 1146.17 933.079 1148.69 931.354C1151.21 929.629 1153.4 927.971 1155.25 926.379H1163.61C1159.5 931.155 1154.92 935.599 1149.88 939.712C1144.97 943.692 1139.4 947.539 1133.16 951.254C1129.58 955.101 1125.01 958.086 1119.43 960.209C1113.86 962.199 1108.02 963.194 1101.92 963.194C1093.03 963.194 1085.93 960.806 1080.63 956.03C1075.45 951.121 1072.87 945.019 1072.87 937.722C1072.87 933.609 1073.86 929.895 1075.85 926.578C1077.84 923.129 1080.36 920.674 1083.41 919.215C1087.92 911.122 1092.1 902.499 1095.95 893.345C1099.93 884.058 1103.91 873.047 1107.89 860.311L1137.34 856.331C1137.74 866.281 1138.21 875.369 1138.74 883.594C1139.27 891.819 1139.93 900.774 1140.73 910.459C1141.12 916.031 1141.39 919.945 1141.52 922.2C1141.66 924.455 1141.72 926.644 1141.72 928.767ZM1109.09 881.803C1107.36 887.242 1105.24 892.947 1102.72 898.917C1100.33 904.754 1097.08 911.587 1092.97 919.414C1094.43 920.077 1095.55 921.006 1096.35 922.2C1097.15 923.394 1097.54 924.787 1097.54 926.379C1097.54 928.9 1096.68 931.155 1094.96 933.145C1093.23 935.135 1091.18 936.13 1088.79 936.13C1087.46 936.13 1086.33 935.931 1085.4 935.533C1084.48 935.002 1083.81 934.339 1083.41 933.543C1083.41 938.452 1084.34 942.034 1086.2 944.289C1088.19 946.412 1091.31 947.473 1095.55 947.473C1100.99 947.473 1105.24 945.881 1108.29 942.697C1111.34 939.513 1112.87 934.936 1112.87 928.966C1112.87 927.109 1112.8 925.251 1112.67 923.394C1112.53 921.404 1112.27 918.154 1111.87 913.643C1111.21 907.408 1110.68 901.902 1110.28 897.126C1109.88 892.35 1109.48 887.242 1109.09 881.803Z" fill="black"/>
<path d="M1226.02 826.68C1232.79 822.302 1240.02 818.919 1247.72 816.531C1255.54 814.01 1263.17 812.75 1270.6 812.75C1271.53 812.75 1272.52 812.816 1273.59 812.949C1274.78 812.949 1276.44 813.015 1278.56 813.148L1265.82 872.45H1295.08L1307.81 813.148H1336.47L1304.83 962H1276.17L1292.09 887.176H1262.84L1246.92 962H1218.26L1247.12 826.68C1238.1 830.395 1231.2 836.033 1226.42 843.595C1221.65 851.024 1219.26 859.913 1219.26 870.261C1219.26 872.782 1219.39 874.971 1219.66 876.828C1220.05 878.685 1220.65 880.476 1221.45 882.201C1221.71 882.732 1221.85 883.13 1221.85 883.395C1221.98 883.528 1222.04 883.66 1222.04 883.793C1214.61 883.793 1209.18 882.267 1205.73 879.216C1202.41 876.032 1200.75 871.123 1200.75 864.49C1200.75 857.857 1202.94 851.223 1207.32 844.59C1211.83 837.957 1218.06 831.987 1226.02 826.68Z" fill="black"/>
<path d="M1327.92 931.354C1327.92 923.792 1329.11 915.766 1331.5 907.275C1334.02 898.784 1337.41 891.222 1341.65 884.589C1346.56 876.762 1352.46 870.858 1359.36 866.878C1366.26 862.765 1373.96 860.709 1382.45 860.709C1390.94 860.709 1397.3 863.362 1401.55 868.669C1405.8 873.976 1407.92 881.936 1407.92 892.549C1408.18 892.682 1408.45 892.814 1408.71 892.947C1409.11 892.947 1409.58 892.947 1410.11 892.947C1414.22 892.947 1419.13 891.819 1424.83 889.564C1430.54 887.309 1435.84 884.456 1440.75 881.007L1442.54 886.38C1438.83 890.36 1433.85 893.809 1427.62 896.728C1421.52 899.647 1414.75 901.703 1407.32 902.897C1405.73 920.807 1400.56 935.268 1391.8 946.279C1383.04 957.29 1372.36 962.796 1359.76 962.796C1349.41 962.796 1341.52 960.143 1336.08 954.836C1330.64 949.529 1327.92 941.702 1327.92 931.354ZM1384.04 872.848C1377.67 872.848 1371.63 879.282 1365.93 892.151C1360.36 905.02 1357.57 917.225 1357.57 928.767C1357.57 935.002 1358.23 939.248 1359.56 941.503C1361.02 943.758 1363.74 944.886 1367.72 944.886C1372.63 944.886 1377.27 940.906 1381.65 932.946C1386.16 924.986 1389.21 915.169 1390.8 903.494C1388.95 903.096 1387.55 902.234 1386.62 900.907C1385.83 899.448 1385.43 897.524 1385.43 895.136C1385.43 892.615 1385.96 890.426 1387.02 888.569C1388.08 886.712 1389.61 885.319 1391.6 884.39C1391.33 880.145 1390.6 877.16 1389.41 875.435C1388.35 873.71 1386.56 872.848 1384.04 872.848Z" fill="black"/>
<path d="M1523.25 940.707C1523.25 938.319 1523.51 935.334 1524.04 931.752C1524.71 928.17 1525.97 922.465 1527.82 914.638C1529.68 907.076 1530.87 901.637 1531.41 898.32C1531.94 895.003 1532.2 892.217 1532.2 889.962C1532.2 886.645 1531.6 884.125 1530.41 882.4C1529.22 880.675 1527.43 879.813 1525.04 879.813C1521.85 879.813 1518.87 881.471 1516.08 884.788C1513.43 887.972 1511.24 892.416 1509.52 898.121L1495.98 962H1467.33L1481.85 893.345C1482.12 892.549 1482.25 891.753 1482.25 890.957C1482.39 890.161 1482.45 889.299 1482.45 888.37C1482.45 885.717 1481.92 883.594 1480.86 882.002C1479.8 880.41 1478.34 879.614 1476.48 879.614C1473.03 879.614 1469.91 881.272 1467.13 884.589C1464.34 887.773 1462.09 892.284 1460.36 898.121L1446.83 962H1418.17L1439.27 862.5H1467.92L1465.74 872.848C1469.05 869.001 1472.7 866.148 1476.68 864.291C1480.66 862.434 1485.1 861.505 1490.01 861.505C1495.85 861.505 1500.43 862.964 1503.74 865.883C1507.19 868.669 1509.45 872.914 1510.51 878.619C1514.23 872.914 1518.34 868.669 1522.85 865.883C1527.36 863.097 1532.47 861.704 1538.17 861.704C1545.2 861.704 1550.64 863.628 1554.49 867.475C1558.34 871.322 1560.26 876.894 1560.26 884.191C1560.26 887.242 1559.86 890.891 1559.07 895.136C1558.4 899.249 1557.01 905.617 1554.89 914.24C1553.16 921.006 1552.04 925.782 1551.5 928.568C1550.97 931.354 1550.71 933.676 1550.71 935.533C1550.71 938.319 1551.37 940.442 1552.7 941.901C1554.03 943.228 1556.02 943.891 1558.67 943.891C1561.98 943.891 1564.84 942.763 1567.23 940.508C1569.61 938.253 1572.33 933.543 1575.38 926.379H1583.74C1579.5 938.717 1574.32 947.937 1568.22 954.04C1562.25 960.143 1555.09 963.194 1546.73 963.194C1539.3 963.194 1533.53 961.204 1529.42 957.224C1525.3 953.111 1523.25 947.606 1523.25 940.707Z" fill="black"/>
<path d="M1650.74 879.813C1650.74 890.824 1646.23 900.443 1637.21 908.668C1628.19 916.761 1617.44 921.139 1604.97 921.802C1604.84 924.057 1604.7 925.782 1604.57 926.976C1604.57 928.037 1604.57 928.966 1604.57 929.762C1604.57 935.865 1605.57 940.176 1607.56 942.697C1609.68 945.218 1613.46 946.478 1618.9 946.478C1625.14 946.478 1630.84 945.085 1636.01 942.299C1641.32 939.38 1647.36 934.074 1654.12 926.379H1660.89C1653.19 938.85 1644.84 948.136 1635.82 954.239C1626.79 960.209 1616.91 963.194 1606.16 963.194C1595.95 963.194 1588.19 960.541 1582.88 955.234C1577.71 949.927 1575.12 942.034 1575.12 931.553C1575.12 923.991 1576.31 915.965 1578.7 907.474C1581.09 898.983 1584.27 891.421 1588.25 884.788C1593.16 876.828 1599 870.858 1605.77 866.878C1612.66 862.765 1620.36 860.709 1628.85 860.709C1636.15 860.709 1641.59 862.301 1645.17 865.485C1648.88 868.536 1650.74 873.312 1650.74 879.813ZM1630.44 871.256C1625.93 871.256 1621.35 875.302 1616.71 883.395C1612.2 891.355 1608.82 900.973 1606.56 912.25C1614.26 911.719 1620.96 908.204 1626.66 901.703C1632.5 895.07 1635.42 887.64 1635.42 879.415C1635.42 876.629 1635.02 874.573 1634.22 873.246C1633.43 871.919 1632.17 871.256 1630.44 871.256Z" fill="black"/>
<path d="M1754.12 940.707C1754.12 938.319 1754.38 935.334 1754.91 931.752C1755.58 928.17 1756.84 922.465 1758.69 914.638C1760.55 907.076 1761.75 901.637 1762.28 898.32C1762.81 895.003 1763.07 892.217 1763.07 889.962C1763.07 886.645 1762.48 884.125 1761.28 882.4C1760.09 880.675 1758.3 879.813 1755.91 879.813C1752.72 879.813 1749.74 881.471 1746.95 884.788C1744.3 887.972 1742.11 892.416 1740.39 898.121L1726.85 962H1698.2L1712.73 893.345C1712.99 892.549 1713.12 891.753 1713.12 890.957C1713.26 890.161 1713.32 889.299 1713.32 888.37C1713.32 885.717 1712.79 883.594 1711.73 882.002C1710.67 880.41 1709.21 879.614 1707.35 879.614C1703.9 879.614 1700.79 881.272 1698 884.589C1695.21 887.773 1692.96 892.284 1691.23 898.121L1677.7 962H1649.05L1670.14 862.5H1698.8L1696.61 872.848C1699.92 869.001 1703.57 866.148 1707.55 864.291C1711.53 862.434 1715.98 861.505 1720.88 861.505C1726.72 861.505 1731.3 862.964 1734.62 865.883C1738.06 868.669 1740.32 872.914 1741.38 878.619C1745.1 872.914 1749.21 868.669 1753.72 865.883C1758.23 863.097 1763.34 861.704 1769.04 861.704C1776.07 861.704 1781.51 863.628 1785.36 867.475C1789.21 871.322 1791.13 876.894 1791.13 884.191C1791.13 887.242 1790.73 890.891 1789.94 895.136C1789.27 899.249 1787.88 905.617 1785.76 914.24C1784.03 921.006 1782.91 925.782 1782.38 928.568C1781.84 931.354 1781.58 933.676 1781.58 935.533C1781.58 938.319 1782.24 940.442 1783.57 941.901C1784.9 943.228 1786.89 943.891 1789.54 943.891C1792.86 943.891 1795.71 942.763 1798.1 940.508C1800.48 938.253 1803.2 933.543 1806.26 926.379H1814.61C1810.37 938.717 1805.19 947.937 1799.09 954.04C1793.12 960.143 1785.96 963.194 1777.6 963.194C1770.17 963.194 1764.4 961.204 1760.29 957.224C1756.17 953.111 1754.12 947.606 1754.12 940.707Z" fill="black"/>
<path d="M1871.31 871.654V873.047L1873.5 862.5H1902.15L1887.83 930.16C1887.56 931.354 1887.36 932.482 1887.23 933.543C1887.1 934.472 1887.03 935.467 1887.03 936.528C1887.03 939.447 1887.69 941.636 1889.02 943.095C1890.35 944.422 1892.4 945.085 1895.19 945.085C1898.64 945.085 1901.76 943.493 1904.54 940.309C1907.33 936.992 1909.58 932.349 1911.31 926.379H1919.67C1915.42 938.584 1909.92 947.805 1903.15 954.04C1896.38 960.143 1888.56 963.194 1879.67 963.194C1873.96 963.194 1869.39 961.602 1865.94 958.418C1862.62 955.234 1860.7 950.723 1860.17 944.886C1856.05 950.989 1851.48 955.566 1846.43 958.617C1841.53 961.668 1836.22 963.194 1830.51 963.194C1822.29 963.194 1815.79 960.408 1811.01 954.836C1806.37 949.264 1804.05 941.37 1804.05 931.155C1804.05 923.726 1805.18 915.965 1807.43 907.872C1809.69 899.779 1812.8 892.416 1816.78 885.783C1821.69 877.956 1827.4 871.986 1833.9 867.873C1840.4 863.628 1847.5 861.505 1855.19 861.505C1860.36 861.505 1864.34 862.434 1867.13 864.291C1869.92 866.016 1871.31 868.47 1871.31 871.654ZM1869.52 881.405C1869.52 879.415 1868.79 877.69 1867.33 876.231C1865.87 874.639 1863.88 873.843 1861.36 873.843C1854.06 873.843 1847.56 879.946 1841.86 892.151C1836.29 904.356 1833.5 916.429 1833.5 928.369C1833.5 933.543 1834.23 937.457 1835.69 940.11C1837.15 942.631 1839.73 943.891 1843.45 943.891C1846.9 943.891 1850.22 942.233 1853.4 938.916C1856.72 935.599 1858.91 931.42 1859.97 926.379L1869.52 881.405Z" fill="black"/>
<path d="M1936.11 928.369C1936.11 933.543 1936.84 937.457 1938.3 940.11C1939.76 942.631 1942.34 943.891 1946.06 943.891C1949.38 943.891 1952.63 942.365 1955.81 939.314C1958.99 936.13 1961.18 932.15 1962.38 927.374V926.379L1972.13 880.808C1971.73 878.685 1970.8 877.027 1969.34 875.833C1968.02 874.506 1966.22 873.843 1963.97 873.843C1956.67 873.843 1950.17 879.946 1944.47 892.151C1938.9 904.356 1936.11 916.429 1936.11 928.369ZM1973.92 871.654V872.45L1983.67 826.68L2013.12 822.7L1990.24 930.16C1989.97 931.354 1989.77 932.482 1989.64 933.543C1989.51 934.472 1989.44 935.467 1989.44 936.528C1989.44 939.181 1990.04 941.105 1991.23 942.299C1992.56 943.36 1994.68 943.891 1997.6 943.891C2001.05 943.891 2004.17 942.365 2006.95 939.314C2009.74 936.263 2011.99 931.951 2013.72 926.379H2022.08C2017.96 938.186 2012.59 947.075 2005.96 953.045C1999.46 959.015 1991.5 962 1982.08 962C1976.64 962 1972.19 960.541 1968.75 957.622C1965.43 954.571 1963.37 950.325 1962.58 944.886C1958.6 950.989 1954.15 955.566 1949.24 958.617C1944.33 961.668 1938.96 963.194 1933.12 963.194C1924.9 963.194 1918.4 960.408 1913.62 954.836C1908.98 949.264 1906.66 941.37 1906.66 931.155C1906.66 923.726 1907.78 915.965 1910.04 907.872C1912.3 899.779 1915.41 892.416 1919.39 885.783C1924.3 877.956 1930.01 871.986 1936.51 867.873C1943.01 863.628 1950.11 861.505 1957.8 861.505C1962.97 861.505 1966.95 862.434 1969.74 864.291C1972.53 866.016 1973.92 868.47 1973.92 871.654Z" fill="black"/>
<path d="M2082.36 879.813C2082.36 890.824 2077.85 900.443 2068.83 908.668C2059.81 916.761 2049.06 921.139 2036.59 921.802C2036.46 924.057 2036.32 925.782 2036.19 926.976C2036.19 928.037 2036.19 928.966 2036.19 929.762C2036.19 935.865 2037.19 940.176 2039.18 942.697C2041.3 945.218 2045.08 946.478 2050.52 946.478C2056.76 946.478 2062.46 945.085 2067.63 942.299C2072.94 939.38 2078.98 934.074 2085.74 926.379H2092.51C2084.81 938.85 2076.46 948.136 2067.44 954.239C2058.41 960.209 2048.53 963.194 2037.78 963.194C2027.57 963.194 2019.81 960.541 2014.5 955.234C2009.33 949.927 2006.74 942.034 2006.74 931.553C2006.74 923.991 2007.93 915.965 2010.32 907.474C2012.71 898.983 2015.89 891.421 2019.87 884.788C2024.78 876.828 2030.62 870.858 2037.39 866.878C2044.28 862.765 2051.98 860.709 2060.47 860.709C2067.77 860.709 2073.21 862.301 2076.79 865.485C2080.5 868.536 2082.36 873.312 2082.36 879.813ZM2062.06 871.256C2057.55 871.256 2052.97 875.302 2048.33 883.395C2043.82 891.355 2040.44 900.973 2038.18 912.25C2045.88 911.719 2052.58 908.204 2058.28 901.703C2064.12 895.07 2067.04 887.64 2067.04 879.415C2067.04 876.629 2066.64 874.573 2065.84 873.246C2065.05 871.919 2063.79 871.256 2062.06 871.256Z" fill="black"/>
<path d="M482.179 1182H453.523L480.587 1055.44L510.039 1051.46L495.91 1117.92C505.197 1117.13 513.29 1111.69 520.188 1101.6C527.22 1091.52 530.735 1080.64 530.735 1068.97C530.735 1060.48 528.546 1053.84 524.168 1049.07C519.923 1044.29 513.887 1041.9 506.059 1041.9C489.874 1041.9 477.204 1046.22 468.05 1054.84C459.029 1063.33 454.518 1075.14 454.518 1090.26C454.518 1092.78 454.651 1094.97 454.916 1096.83C455.314 1098.69 455.911 1100.48 456.707 1102.2C456.973 1102.73 457.105 1103.13 457.105 1103.4C457.238 1103.53 457.304 1103.66 457.304 1103.79C449.875 1103.79 444.436 1102.27 440.986 1099.22C437.67 1096.03 436.011 1091.12 436.011 1084.49C436.011 1077.86 438.2 1071.22 442.578 1064.59C447.089 1057.96 453.324 1051.99 461.284 1046.68C468.05 1042.3 475.281 1038.92 482.975 1036.53C490.803 1034.01 498.431 1032.75 505.86 1032.75C520.454 1032.75 531.929 1036.33 540.287 1043.5C548.645 1050.66 552.824 1060.15 552.824 1071.95C552.824 1078.98 551.232 1085.88 548.048 1092.65C544.997 1099.42 540.685 1105.32 535.113 1110.36C529.807 1115.27 523.77 1118.98 517.004 1121.5C510.238 1124.02 503.008 1125.29 495.313 1125.29H494.318L482.179 1182Z" fill="black"/>
<path d="M598.046 1056.03C598.046 1060.41 596.454 1064.13 593.27 1067.18C590.218 1070.23 586.504 1071.75 582.126 1071.75C577.748 1071.75 574.033 1070.23 570.982 1067.18C567.93 1064.13 566.405 1060.41 566.405 1056.03C566.405 1051.65 567.93 1047.94 570.982 1044.89C574.033 1041.71 577.748 1040.11 582.126 1040.11C586.504 1040.11 590.218 1041.71 593.27 1044.89C596.454 1047.94 598.046 1051.65 598.046 1056.03ZM547.301 1159.31C547.301 1157.59 547.433 1155.67 547.699 1153.54C547.964 1151.29 548.362 1148.9 548.893 1146.38L562.425 1082.5H591.081L576.753 1150.16C576.487 1151.35 576.288 1152.48 576.156 1153.54C576.023 1154.47 575.957 1155.47 575.957 1156.53C575.957 1159.18 576.554 1161.1 577.748 1162.3C579.074 1163.36 581.197 1163.89 584.116 1163.89C587.83 1163.89 591.346 1162.3 594.663 1159.11C597.979 1155.8 600.434 1151.55 602.026 1146.38H610.384C606.138 1158.45 600.434 1167.61 593.27 1173.84C586.106 1180.08 577.88 1183.19 568.594 1183.19C561.96 1183.19 556.72 1181.14 552.873 1177.03C549.158 1172.78 547.301 1166.88 547.301 1159.31Z" fill="black"/>
<path d="M674.979 1099.81C674.979 1110.82 670.469 1120.44 661.447 1128.67C652.426 1136.76 641.68 1141.14 629.209 1141.8C629.077 1144.06 628.944 1145.78 628.811 1146.98C628.811 1148.04 628.811 1148.97 628.811 1149.76C628.811 1155.86 629.806 1160.18 631.796 1162.7C633.919 1165.22 637.7 1166.48 643.139 1166.48C649.375 1166.48 655.079 1165.08 660.253 1162.3C665.56 1159.38 671.596 1154.07 678.362 1146.38H685.128C677.434 1158.85 669.076 1168.14 660.054 1174.24C651.033 1180.21 641.149 1183.19 630.403 1183.19C620.188 1183.19 612.427 1180.54 607.12 1175.23C601.946 1169.93 599.359 1162.03 599.359 1151.55C599.359 1143.99 600.553 1135.96 602.941 1127.47C605.329 1118.98 608.513 1111.42 612.493 1104.79C617.402 1096.83 623.239 1090.86 630.005 1086.88C636.904 1082.77 644.599 1080.71 653.089 1080.71C660.386 1080.71 665.825 1082.3 669.407 1085.48C673.122 1088.54 674.979 1093.31 674.979 1099.81ZM654.681 1091.26C650.171 1091.26 645.594 1095.3 640.95 1103.4C636.44 1111.35 633.057 1120.97 630.801 1132.25C638.496 1131.72 645.196 1128.2 650.9 1121.7C656.738 1115.07 659.656 1107.64 659.656 1099.42C659.656 1096.63 659.258 1094.57 658.462 1093.25C657.666 1091.92 656.406 1091.26 654.681 1091.26Z" fill="black"/>
<path d="M737.114 1148.77C737.114 1150.36 737.048 1151.75 736.915 1152.95C736.782 1154.14 736.583 1155.27 736.318 1156.33C738.971 1154.74 741.558 1153.08 744.079 1151.35C746.6 1149.63 748.789 1147.97 750.646 1146.38H759.004C754.891 1151.16 750.314 1155.6 745.273 1159.71C740.364 1163.69 734.792 1167.54 728.557 1171.25C724.975 1175.1 720.398 1178.09 714.826 1180.21C709.254 1182.2 703.417 1183.19 697.314 1183.19C688.425 1183.19 681.328 1180.81 676.021 1176.03C670.847 1171.12 668.26 1165.02 668.26 1157.72C668.26 1153.61 669.255 1149.89 671.245 1146.58C673.235 1143.13 675.756 1140.67 678.807 1139.21C683.318 1131.12 687.497 1122.5 691.344 1113.34C695.324 1104.06 699.304 1093.05 703.284 1080.31L732.736 1076.33C733.134 1086.28 733.598 1095.37 734.129 1103.59C734.66 1111.82 735.323 1120.77 736.119 1130.46C736.517 1136.03 736.782 1139.94 736.915 1142.2C737.048 1144.46 737.114 1146.64 737.114 1148.77ZM704.478 1101.8C702.753 1107.24 700.631 1112.95 698.11 1118.92C695.722 1124.75 692.472 1131.59 688.359 1139.41C689.818 1140.08 690.946 1141.01 691.742 1142.2C692.538 1143.39 692.936 1144.79 692.936 1146.38C692.936 1148.9 692.074 1151.16 690.349 1153.15C688.624 1155.14 686.568 1156.13 684.18 1156.13C682.853 1156.13 681.726 1155.93 680.797 1155.53C679.868 1155 679.205 1154.34 678.807 1153.54C678.807 1158.45 679.736 1162.03 681.593 1164.29C683.583 1166.41 686.701 1167.47 690.946 1167.47C696.385 1167.47 700.631 1165.88 703.682 1162.7C706.733 1159.51 708.259 1154.94 708.259 1148.97C708.259 1147.11 708.193 1145.25 708.06 1143.39C707.927 1141.4 707.662 1138.15 707.264 1133.64C706.601 1127.41 706.07 1121.9 705.672 1117.13C705.274 1112.35 704.876 1107.24 704.478 1101.8Z" fill="black"/>
<path d="M858.431 1091.65V1093.05L860.62 1082.5H889.276L874.948 1150.16C874.683 1151.35 874.484 1152.48 874.351 1153.54C874.218 1154.47 874.152 1155.47 874.152 1156.53C874.152 1159.45 874.815 1161.64 876.142 1163.09C877.469 1164.42 879.525 1165.08 882.311 1165.08C885.76 1165.08 888.878 1163.49 891.664 1160.31C894.45 1156.99 896.705 1152.35 898.43 1146.38H906.788C902.542 1158.58 897.037 1167.8 890.271 1174.04C883.505 1180.14 875.678 1183.19 866.789 1183.19C861.084 1183.19 856.507 1181.6 853.058 1178.42C849.741 1175.23 847.818 1170.72 847.287 1164.89C843.174 1170.99 838.597 1175.57 833.556 1178.62C828.647 1181.67 823.341 1183.19 817.636 1183.19C809.411 1183.19 802.91 1180.41 798.134 1174.84C793.491 1169.26 791.169 1161.37 791.169 1151.16C791.169 1143.73 792.297 1135.96 794.552 1127.87C796.807 1119.78 799.925 1112.42 803.905 1105.78C808.814 1097.96 814.518 1091.99 821.019 1087.87C827.52 1083.63 834.617 1081.51 842.312 1081.51C847.486 1081.51 851.466 1082.43 854.252 1084.29C857.038 1086.02 858.431 1088.47 858.431 1091.65ZM856.64 1101.41C856.64 1099.42 855.91 1097.69 854.451 1096.23C852.992 1094.64 851.002 1093.84 848.481 1093.84C841.184 1093.84 834.684 1099.95 828.979 1112.15C823.407 1124.36 820.621 1136.43 820.621 1148.37C820.621 1153.54 821.351 1157.46 822.81 1160.11C824.269 1162.63 826.856 1163.89 830.571 1163.89C834.02 1163.89 837.337 1162.23 840.521 1158.92C843.838 1155.6 846.027 1151.42 847.088 1146.38L856.64 1101.41Z" fill="black"/>
<path d="M946.86 1160.71C946.86 1158.32 947.125 1155.33 947.656 1151.75C948.319 1148.17 949.58 1142.47 951.437 1134.64C953.294 1127.08 954.488 1121.64 955.019 1118.32C955.55 1115 955.815 1112.22 955.815 1109.96C955.815 1106.65 955.218 1104.12 954.024 1102.4C952.83 1100.68 951.039 1099.81 948.651 1099.81C945.467 1099.81 942.482 1101.47 939.696 1104.79C937.043 1107.97 934.854 1112.42 933.129 1118.12L919.597 1182H890.941L912.035 1082.5H940.691L938.502 1092.85C941.819 1089.13 945.401 1086.35 949.248 1084.49C953.095 1082.63 957.274 1081.7 961.785 1081.7C968.816 1081.7 974.256 1083.63 978.103 1087.47C981.95 1091.32 983.874 1096.89 983.874 1104.19C983.874 1107.24 983.476 1110.89 982.68 1115.14C982.017 1119.25 980.624 1125.62 978.501 1134.24C976.776 1141.01 975.649 1145.78 975.118 1148.57C974.587 1151.35 974.322 1153.68 974.322 1155.53C974.322 1158.32 974.985 1160.44 976.312 1161.9C977.639 1163.23 979.629 1163.89 982.282 1163.89C985.599 1163.89 988.451 1162.76 990.839 1160.51C993.227 1158.25 995.947 1153.54 998.998 1146.38H1007.36C1003.11 1158.72 997.937 1167.94 991.834 1174.04C985.864 1180.14 978.7 1183.19 970.342 1183.19C962.913 1183.19 957.142 1181.2 953.029 1177.22C948.916 1173.11 946.86 1167.61 946.86 1160.71Z" fill="black"/>
<path d="M1026.23 1148.37C1026.23 1153.54 1026.96 1157.46 1028.42 1160.11C1029.88 1162.63 1032.46 1163.89 1036.18 1163.89C1039.49 1163.89 1042.75 1162.37 1045.93 1159.31C1049.11 1156.13 1051.3 1152.15 1052.5 1147.37V1146.38L1062.25 1100.81C1061.85 1098.69 1060.92 1097.03 1059.46 1095.83C1058.13 1094.51 1056.34 1093.84 1054.09 1093.84C1046.79 1093.84 1040.29 1099.95 1034.59 1112.15C1029.01 1124.36 1026.23 1136.43 1026.23 1148.37ZM1064.04 1091.65V1092.45L1073.79 1046.68L1103.24 1042.7L1080.36 1150.16C1080.09 1151.35 1079.89 1152.48 1079.76 1153.54C1079.63 1154.47 1079.56 1155.47 1079.56 1156.53C1079.56 1159.18 1080.16 1161.1 1081.35 1162.3C1082.68 1163.36 1084.8 1163.89 1087.72 1163.89C1091.17 1163.89 1094.29 1162.37 1097.07 1159.31C1099.86 1156.26 1102.11 1151.95 1103.84 1146.38H1112.2C1108.08 1158.19 1102.71 1167.08 1096.08 1173.05C1089.58 1179.02 1081.62 1182 1072.2 1182C1066.76 1182 1062.31 1180.54 1058.86 1177.62C1055.55 1174.57 1053.49 1170.33 1052.7 1164.89C1048.72 1170.99 1044.27 1175.57 1039.36 1178.62C1034.45 1181.67 1029.08 1183.19 1023.24 1183.19C1015.02 1183.19 1008.52 1180.41 1003.74 1174.84C999.098 1169.26 996.776 1161.37 996.776 1151.16C996.776 1143.73 997.904 1135.96 1000.16 1127.87C1002.41 1119.78 1005.53 1112.42 1009.51 1105.78C1014.42 1097.96 1020.13 1091.99 1026.63 1087.87C1033.13 1083.63 1040.22 1081.51 1047.92 1081.51C1053.09 1081.51 1057.07 1082.43 1059.86 1084.29C1062.65 1086.02 1064.04 1088.47 1064.04 1091.65Z" fill="black"/>
<path d="M1194.42 1182H1165.76L1192.83 1055.44L1222.28 1051.46L1208.15 1117.92C1217.44 1117.13 1225.53 1111.69 1232.43 1101.6C1239.46 1091.52 1242.98 1080.64 1242.98 1068.97C1242.98 1060.48 1240.79 1053.84 1236.41 1049.07C1232.16 1044.29 1226.13 1041.9 1218.3 1041.9C1202.12 1041.9 1189.45 1046.22 1180.29 1054.84C1171.27 1063.33 1166.76 1075.14 1166.76 1090.26C1166.76 1092.78 1166.89 1094.97 1167.16 1096.83C1167.56 1098.69 1168.15 1100.48 1168.95 1102.2C1169.21 1102.73 1169.35 1103.13 1169.35 1103.4C1169.48 1103.53 1169.55 1103.66 1169.55 1103.79C1162.12 1103.79 1156.68 1102.27 1153.23 1099.22C1149.91 1096.03 1148.25 1091.12 1148.25 1084.49C1148.25 1077.86 1150.44 1071.22 1154.82 1064.59C1159.33 1057.96 1165.57 1051.99 1173.53 1046.68C1180.29 1042.3 1187.52 1038.92 1195.22 1036.53C1203.04 1034.01 1210.67 1032.75 1218.1 1032.75C1232.69 1032.75 1244.17 1036.33 1252.53 1043.5C1260.89 1050.66 1265.07 1060.15 1265.07 1071.95C1265.07 1078.98 1263.47 1085.88 1260.29 1092.65C1257.24 1099.42 1252.93 1105.32 1247.35 1110.36C1242.05 1115.27 1236.01 1118.98 1229.25 1121.5C1222.48 1124.02 1215.25 1125.29 1207.55 1125.29H1206.56L1194.42 1182Z" fill="black"/>
<path d="M1282.23 1182H1253.57L1274.67 1082.5H1303.32L1300.73 1094.84C1306.57 1089.93 1311.15 1086.68 1314.47 1085.09C1317.92 1083.36 1321.36 1082.5 1324.81 1082.5C1328.93 1082.5 1332.24 1083.96 1334.76 1086.88C1337.28 1089.66 1338.54 1093.18 1338.54 1097.43C1338.54 1101.54 1337.22 1104.99 1334.56 1107.77C1331.91 1110.56 1328.46 1111.95 1324.22 1111.95C1321.96 1111.95 1320.17 1111.42 1318.84 1110.36C1317.65 1109.3 1316.79 1107.11 1316.26 1103.79C1315.86 1101.67 1315.39 1100.34 1314.86 1099.81C1314.33 1099.15 1313.6 1098.82 1312.67 1098.82C1310.42 1098.82 1308.3 1099.28 1306.31 1100.21C1304.32 1101.14 1301.6 1103.2 1298.15 1106.38L1282.23 1182Z" fill="black"/>
<path d="M1408.6 1099.81C1408.6 1110.82 1404.09 1120.44 1395.07 1128.67C1386.04 1136.76 1375.3 1141.14 1362.83 1141.8C1362.69 1144.06 1362.56 1145.78 1362.43 1146.98C1362.43 1148.04 1362.43 1148.97 1362.43 1149.76C1362.43 1155.86 1363.42 1160.18 1365.41 1162.7C1367.54 1165.22 1371.32 1166.48 1376.76 1166.48C1382.99 1166.48 1388.7 1165.08 1393.87 1162.3C1399.18 1159.38 1405.21 1154.07 1411.98 1146.38H1418.75C1411.05 1158.85 1402.69 1168.14 1393.67 1174.24C1384.65 1180.21 1374.77 1183.19 1364.02 1183.19C1353.81 1183.19 1346.05 1180.54 1340.74 1175.23C1335.56 1169.93 1332.98 1162.03 1332.98 1151.55C1332.98 1143.99 1334.17 1135.96 1336.56 1127.47C1338.95 1118.98 1342.13 1111.42 1346.11 1104.79C1351.02 1096.83 1356.86 1090.86 1363.62 1086.88C1370.52 1082.77 1378.22 1080.71 1386.71 1080.71C1394 1080.71 1399.44 1082.3 1403.03 1085.48C1406.74 1088.54 1408.6 1093.31 1408.6 1099.81ZM1388.3 1091.26C1383.79 1091.26 1379.21 1095.3 1374.57 1103.4C1370.06 1111.35 1366.67 1120.97 1364.42 1132.25C1372.11 1131.72 1378.81 1128.2 1384.52 1121.7C1390.36 1115.07 1393.27 1107.64 1393.27 1099.42C1393.27 1096.63 1392.88 1094.57 1392.08 1093.25C1391.28 1091.92 1390.02 1091.26 1388.3 1091.26Z" fill="black"/>
<path d="M1470.73 1148.77C1470.73 1150.36 1470.67 1151.75 1470.53 1152.95C1470.4 1154.14 1470.2 1155.27 1469.94 1156.33C1472.59 1154.74 1475.18 1153.08 1477.7 1151.35C1480.22 1149.63 1482.41 1147.97 1484.26 1146.38H1492.62C1488.51 1151.16 1483.93 1155.6 1478.89 1159.71C1473.98 1163.69 1468.41 1167.54 1462.18 1171.25C1458.59 1175.1 1454.02 1178.09 1448.44 1180.21C1442.87 1182.2 1437.03 1183.19 1430.93 1183.19C1422.04 1183.19 1414.95 1180.81 1409.64 1176.03C1404.47 1171.12 1401.88 1165.02 1401.88 1157.72C1401.88 1153.61 1402.87 1149.89 1404.86 1146.58C1406.85 1143.13 1409.37 1140.67 1412.43 1139.21C1416.94 1131.12 1421.11 1122.5 1424.96 1113.34C1428.94 1104.06 1432.92 1093.05 1436.9 1080.31L1466.35 1076.33C1466.75 1086.28 1467.22 1095.37 1467.75 1103.59C1468.28 1111.82 1468.94 1120.77 1469.74 1130.46C1470.14 1136.03 1470.4 1139.94 1470.53 1142.2C1470.67 1144.46 1470.73 1146.64 1470.73 1148.77ZM1438.1 1101.8C1436.37 1107.24 1434.25 1112.95 1431.73 1118.92C1429.34 1124.75 1426.09 1131.59 1421.98 1139.41C1423.44 1140.08 1424.56 1141.01 1425.36 1142.2C1426.16 1143.39 1426.55 1144.79 1426.55 1146.38C1426.55 1148.9 1425.69 1151.16 1423.97 1153.15C1422.24 1155.14 1420.19 1156.13 1417.8 1156.13C1416.47 1156.13 1415.34 1155.93 1414.42 1155.53C1413.49 1155 1412.82 1154.34 1412.43 1153.54C1412.43 1158.45 1413.35 1162.03 1415.21 1164.29C1417.2 1166.41 1420.32 1167.47 1424.56 1167.47C1430 1167.47 1434.25 1165.88 1437.3 1162.7C1440.35 1159.51 1441.88 1154.94 1441.88 1148.97C1441.88 1147.11 1441.81 1145.25 1441.68 1143.39C1441.55 1141.4 1441.28 1138.15 1440.88 1133.64C1440.22 1127.41 1439.69 1121.9 1439.29 1117.13C1438.89 1112.35 1438.49 1107.24 1438.1 1101.8Z" fill="black"/>
<path d="M1560.37 1099.81C1560.37 1110.82 1555.86 1120.44 1546.84 1128.67C1537.82 1136.76 1527.07 1141.14 1514.6 1141.8C1514.47 1144.06 1514.34 1145.78 1514.21 1146.98C1514.21 1148.04 1514.21 1148.97 1514.21 1149.76C1514.21 1155.86 1515.2 1160.18 1517.19 1162.7C1519.31 1165.22 1523.09 1166.48 1528.53 1166.48C1534.77 1166.48 1540.47 1165.08 1545.65 1162.3C1550.95 1159.38 1556.99 1154.07 1563.76 1146.38H1570.52C1562.83 1158.85 1554.47 1168.14 1545.45 1174.24C1536.43 1180.21 1526.54 1183.19 1515.8 1183.19C1505.58 1183.19 1497.82 1180.54 1492.51 1175.23C1487.34 1169.93 1484.75 1162.03 1484.75 1151.55C1484.75 1143.99 1485.95 1135.96 1488.34 1127.47C1490.72 1118.98 1493.91 1111.42 1497.89 1104.79C1502.8 1096.83 1508.63 1090.86 1515.4 1086.88C1522.3 1082.77 1529.99 1080.71 1538.48 1080.71C1545.78 1080.71 1551.22 1082.3 1554.8 1085.48C1558.52 1088.54 1560.37 1093.31 1560.37 1099.81ZM1540.08 1091.26C1535.57 1091.26 1530.99 1095.3 1526.34 1103.4C1521.83 1111.35 1518.45 1120.97 1516.2 1132.25C1523.89 1131.72 1530.59 1128.2 1536.29 1121.7C1542.13 1115.07 1545.05 1107.64 1545.05 1099.42C1545.05 1096.63 1544.65 1094.57 1543.86 1093.25C1543.06 1091.92 1541.8 1091.26 1540.08 1091.26Z" fill="black"/>
<path d="M1585 1182H1556.35L1577.44 1082.5H1606.1L1603.51 1094.84C1609.35 1089.93 1613.92 1086.68 1617.24 1085.09C1620.69 1083.36 1624.14 1082.5 1627.59 1082.5C1631.7 1082.5 1635.02 1083.96 1637.54 1086.88C1640.06 1089.66 1641.32 1093.18 1641.32 1097.43C1641.32 1101.54 1639.99 1104.99 1637.34 1107.77C1634.69 1110.56 1631.24 1111.95 1626.99 1111.95C1624.74 1111.95 1622.95 1111.42 1621.62 1110.36C1620.43 1109.3 1619.56 1107.11 1619.03 1103.79C1618.63 1101.67 1618.17 1100.34 1617.64 1099.81C1617.11 1099.15 1616.38 1098.82 1615.45 1098.82C1613.19 1098.82 1611.07 1099.28 1609.08 1100.21C1607.09 1101.14 1604.37 1103.2 1600.92 1106.38L1585 1182Z" fill="black"/>
<path d="M1700.42 1099.42C1698.3 1099.42 1696.57 1098.42 1695.24 1096.43C1693.92 1094.31 1693.25 1091.92 1693.25 1089.27C1693.25 1085.95 1694.32 1083.36 1696.44 1081.51C1698.69 1079.52 1701.75 1078.52 1705.59 1078.52C1709.71 1078.52 1712.82 1080.05 1714.95 1083.1C1717.07 1086.15 1718.13 1090.39 1718.13 1095.83C1718.13 1104.85 1716.94 1114.34 1714.55 1124.29C1712.29 1134.11 1709.17 1143.06 1705.19 1151.16C1699.89 1161.64 1693.52 1169.6 1686.09 1175.04C1678.66 1180.47 1670.44 1183.19 1661.41 1183.19C1653.59 1183.19 1647.55 1181.2 1643.31 1177.22C1639.06 1173.11 1636.94 1167.27 1636.94 1159.71C1636.94 1158.25 1637.07 1156.73 1637.34 1155.14C1637.47 1153.41 1637.67 1151.75 1637.93 1150.16L1652.26 1082.5H1680.92L1666.59 1150.16C1666.32 1151.62 1666.06 1153.01 1665.79 1154.34C1665.66 1155.53 1665.59 1156.53 1665.59 1157.32C1665.59 1159.45 1666.12 1161.1 1667.19 1162.3C1668.38 1163.36 1670.1 1163.89 1672.36 1163.89C1677 1163.89 1681.51 1161.5 1685.89 1156.73C1690.4 1151.82 1694.45 1144.92 1698.03 1136.03C1700.68 1129.66 1702.81 1122.96 1704.4 1115.93C1705.99 1108.9 1706.79 1102.73 1706.79 1097.43C1706.52 1097.96 1705.66 1098.42 1704.2 1098.82C1702.87 1099.22 1701.61 1099.42 1700.42 1099.42Z" fill="black"/>
<path d="M1794.55 1099.81C1794.55 1110.82 1790.04 1120.44 1781.02 1128.67C1772 1136.76 1761.25 1141.14 1748.78 1141.8C1748.65 1144.06 1748.51 1145.78 1748.38 1146.98C1748.38 1148.04 1748.38 1148.97 1748.38 1149.76C1748.38 1155.86 1749.38 1160.18 1751.37 1162.7C1753.49 1165.22 1757.27 1166.48 1762.71 1166.48C1768.94 1166.48 1774.65 1165.08 1779.82 1162.3C1785.13 1159.38 1791.17 1154.07 1797.93 1146.38H1804.7C1797 1158.85 1788.65 1168.14 1779.62 1174.24C1770.6 1180.21 1760.72 1183.19 1749.97 1183.19C1739.76 1183.19 1732 1180.54 1726.69 1175.23C1721.52 1169.93 1718.93 1162.03 1718.93 1151.55C1718.93 1143.99 1720.12 1135.96 1722.51 1127.47C1724.9 1118.98 1728.08 1111.42 1732.06 1104.79C1736.97 1096.83 1742.81 1090.86 1749.57 1086.88C1756.47 1082.77 1764.17 1080.71 1772.66 1080.71C1779.96 1080.71 1785.39 1082.3 1788.98 1085.48C1792.69 1088.54 1794.55 1093.31 1794.55 1099.81ZM1774.25 1091.26C1769.74 1091.26 1765.16 1095.3 1760.52 1103.4C1756.01 1111.35 1752.63 1120.97 1750.37 1132.25C1758.07 1131.72 1764.76 1128.2 1770.47 1121.7C1776.31 1115.07 1779.23 1107.64 1779.23 1099.42C1779.23 1096.63 1778.83 1094.57 1778.03 1093.25C1777.24 1091.92 1775.98 1091.26 1774.25 1091.26Z" fill="black"/>
<path d="M1856.68 1148.77C1856.68 1150.36 1856.62 1151.75 1856.48 1152.95C1856.35 1154.14 1856.15 1155.27 1855.89 1156.33C1858.54 1154.74 1861.13 1153.08 1863.65 1151.35C1866.17 1149.63 1868.36 1147.97 1870.22 1146.38H1878.57C1874.46 1151.16 1869.88 1155.6 1864.84 1159.71C1859.93 1163.69 1854.36 1167.54 1848.13 1171.25C1844.54 1175.1 1839.97 1178.09 1834.4 1180.21C1828.82 1182.2 1822.99 1183.19 1816.88 1183.19C1807.99 1183.19 1800.9 1180.81 1795.59 1176.03C1790.42 1171.12 1787.83 1165.02 1787.83 1157.72C1787.83 1153.61 1788.82 1149.89 1790.81 1146.58C1792.8 1143.13 1795.32 1140.67 1798.38 1139.21C1802.89 1131.12 1807.07 1122.5 1810.91 1113.34C1814.89 1104.06 1818.87 1093.05 1822.85 1080.31L1852.31 1076.33C1852.7 1086.28 1853.17 1095.37 1853.7 1103.59C1854.23 1111.82 1854.89 1120.77 1855.69 1130.46C1856.09 1136.03 1856.35 1139.94 1856.48 1142.2C1856.62 1144.46 1856.68 1146.64 1856.68 1148.77ZM1824.05 1101.8C1822.32 1107.24 1820.2 1112.95 1817.68 1118.92C1815.29 1124.75 1812.04 1131.59 1807.93 1139.41C1809.39 1140.08 1810.52 1141.01 1811.31 1142.2C1812.11 1143.39 1812.51 1144.79 1812.51 1146.38C1812.51 1148.9 1811.64 1151.16 1809.92 1153.15C1808.19 1155.14 1806.14 1156.13 1803.75 1156.13C1802.42 1156.13 1801.29 1155.93 1800.37 1155.53C1799.44 1155 1798.77 1154.34 1798.38 1153.54C1798.38 1158.45 1799.3 1162.03 1801.16 1164.29C1803.15 1166.41 1806.27 1167.47 1810.52 1167.47C1815.95 1167.47 1820.2 1165.88 1823.25 1162.7C1826.3 1159.51 1827.83 1154.94 1827.83 1148.97C1827.83 1147.11 1827.76 1145.25 1827.63 1143.39C1827.5 1141.4 1827.23 1138.15 1826.83 1133.64C1826.17 1127.41 1825.64 1121.9 1825.24 1117.13C1824.84 1112.35 1824.45 1107.24 1824.05 1101.8Z" fill="black"/>
</svg>
